<svg width="40" height="40" viewBox="0 0 40 40" fill="none" xmlns="http://www.w3.org/2000/svg">
<circle cx="20" cy="20" r="20" fill="#409144" fill-opacity="0.8"/>
<path d="M20 10.5C22.3439 10.5 24.25 12.4061 24.25 14.75C24.24 17.052 22.4419 18.9097 20.1523 18.9902H20.124C20.0448 18.9818 19.9635 18.9833 19.8867 18.9893C17.5377 18.9032 15.75 17.0436 15.75 14.75C15.75 12.4061 17.6561 10.5 20 10.5Z" fill="white" stroke="white"/>
<path opacity="0.4" d="M20.0127 21.755C21.6977 21.755 23.3286 22.1838 24.5254 22.9816C25.5118 23.6392 25.9737 24.4367 26.0332 25.213L26.04 25.3683C26.037 26.1904 25.5781 27.0474 24.5205 27.7609C23.3189 28.5669 21.685 29.0001 20 29.0001C18.3142 29.0001 16.6793 28.5667 15.4775 27.7599L15.4746 27.7579C14.4167 27.0527 13.96 26.1935 13.96 25.38C13.96 24.5652 14.4183 23.6954 15.4863 22.9806L15.4854 22.9796C16.6933 22.1816 18.3299 21.755 20.0127 21.755Z" fill="white" stroke="white" stroke-width="2"/>
<path d="M20 23.13C20.1339 23.13 20.25 23.2461 20.25 23.38V25.13H22C22.1339 25.13 22.25 25.2461 22.25 25.38C22.25 25.5139 22.1339 25.63 22 25.63H20.25V27.38C20.25 27.5139 20.1339 27.63 20 27.63C19.8661 27.63 19.75 27.5139 19.75 27.38V25.63H18C17.8661 25.63 17.75 25.5139 17.75 25.38C17.75 25.2461 17.8661 25.13 18 25.13H19.75V23.38C19.75 23.2461 19.8661 23.13 20 23.13Z" fill="#292D32" stroke="#409144"/>
</svg>
