<svg width="40" height="40" viewBox="0 0 40 40" fill="none" xmlns="http://www.w3.org/2000/svg">
<circle cx="20" cy="20" r="20" fill="#409144" fill-opacity="0.8"/>
<path fill-rule="evenodd" clip-rule="evenodd" d="M10 14C10 11.7909 12.1689 10 14.8443 10H22.1107V14C22.1107 16.2091 24.2796 18 26.955 18H29.3772V26C29.3772 28.2091 27.2083 30 24.5329 30H14.8443C12.1689 30 10 28.2091 10 26V14ZM14.8443 19C14.1754 19 13.6332 19.4477 13.6332 20C13.6332 20.5523 14.1754 21 14.8443 21H17.2664C17.9353 21 18.4775 20.5523 18.4775 20C18.4775 19.4477 17.9353 19 17.2664 19H14.8443ZM14.8443 23C14.1754 23 13.6332 23.4477 13.6332 24C13.6332 24.5523 14.1754 25 14.8443 25H19.6886C20.3574 25 20.8997 24.5523 20.8997 24C20.8997 23.4477 20.3574 23 19.6886 23H14.8443ZM25.3586 12.1988L25.2 14.1629C25.1513 14.7666 25.7579 15.2674 26.489 15.2272L28.8676 15.0962C29.9058 15.0391 30.3792 13.9989 29.6434 13.3913L27.4233 11.5582C26.6876 10.9507 25.4278 11.3415 25.3586 12.1988Z" fill="white"/>
</svg>
