<svg width="24" height="24" viewBox="0 0 24 24" fill="none" xmlns="http://www.w3.org/2000/svg">
<path d="M21.95 13C21.449 18.053 17.185 22 12 22C6.477 22 2 17.523 2 12C2 6.815 5.947 2.551 11 2.05V4.062C8.98271 4.31868 7.13885 5.33386 5.84319 6.90121C4.54752 8.46856 3.89728 10.4705 4.02462 12.5C4.15196 14.5296 5.04733 16.4345 6.52874 17.8276C8.01016 19.2207 9.96645 19.9975 12 20C13.9486 20 15.8302 19.2888 17.2917 18C18.7533 16.7112 19.6942 14.9333 19.938 13H21.951H21.95ZM21.95 11H19.938C19.7154 9.2376 18.9129 7.59933 17.6568 6.34323C16.4007 5.08713 14.7624 4.28458 13 4.062V2.049C15.2951 2.28023 17.4398 3.2976 19.0709 4.92882C20.7019 6.56003 21.719 8.70483 21.95 11Z" fill="#DA1E28"/>
</svg>
