<svg width="167" height="150" viewBox="0 0 167 150" fill="none" xmlns="http://www.w3.org/2000/svg">
<path d="M141.667 50C134.722 50 128.819 47.5694 123.958 42.7083C119.097 37.8472 116.667 31.9444 116.667 25C116.667 18.0556 119.097 12.1528 123.958 7.29167C128.819 2.43056 134.722 0 141.667 0C148.611 0 154.514 2.43056 159.375 7.29167C164.236 12.1528 166.667 18.0556 166.667 25C166.667 31.9444 164.236 37.8472 159.375 42.7083C154.514 47.5694 148.611 50 141.667 50ZM16.6667 150C12.0833 150 8.15972 148.368 4.89583 145.104C1.63194 141.84 0 137.917 0 133.333V33.3333C0 28.75 1.63194 24.8264 4.89583 21.5625C8.15972 18.2986 12.0833 16.6667 16.6667 16.6667H100.833C100.278 19.4444 100 22.2222 100 25C100 27.7778 100.278 30.5556 100.833 33.3333C101.806 37.7778 103.403 41.9097 105.625 45.7292C107.847 49.5486 110.556 52.9167 113.75 55.8333L83.3333 75L16.6667 33.3333V50L83.3333 91.6667L127.292 64.1667C129.653 65 132.014 65.625 134.375 66.0417C136.736 66.4583 139.167 66.6667 141.667 66.6667C146.111 66.6667 150.486 65.9722 154.792 64.5833C159.097 63.1944 163.056 61.1111 166.667 58.3333V133.333C166.667 137.917 165.035 141.84 161.771 145.104C158.507 148.368 154.583 150 150 150H16.6667Z" fill="#1D1B20"/>
</svg>
