<svg width="61" height="61" viewBox="0 0 61 61" fill="none" xmlns="http://www.w3.org/2000/svg">
<g opacity="0.21">
<path d="M37.5 0.5C50.2025 0.5 60.5 10.7975 60.5 23.5V37.5C60.5 50.2025 50.2025 60.5 37.5 60.5H23.5C10.7975 60.5 0.5 50.2025 0.5 37.5V23.5C0.5 10.7975 10.7975 0.5 23.5 0.5H37.5Z" fill="#8280FF"/>
<path d="M37.5 0.5V1C49.9264 1 60 11.0736 60 23.5H60.5H61C61 10.5213 50.4787 0 37.5 0V0.5ZM60.5 23.5H60V37.5H60.5H61V23.5H60.5ZM60.5 37.5H60C60 49.9264 49.9264 60 37.5 60V60.5V61C50.4787 61 61 50.4787 61 37.5H60.5ZM37.5 60.5V60H23.5V60.5V61H37.5V60.5ZM23.5 60.5V60C11.0736 60 1 49.9264 1 37.5H0.5H0C0 50.4787 10.5213 61 23.5 61V60.5ZM0.5 37.5H1V23.5H0.5H0V37.5H0.5ZM0.5 23.5H1C1 11.0736 11.0736 1 23.5 1V0.5V0C10.5213 0 0 10.5213 0 23.5H0.5ZM23.5 0.5V1H37.5V0.5V0H23.5V0.5Z" fill="#A2A9B0"/>
</g>
<g opacity="0.587821">
<path d="M38.4996 25.167C40.7088 25.167 42.4996 26.9579 42.4996 29.167C42.4995 31.376 40.7087 33.167 38.4996 33.167C36.2908 33.1668 34.4998 31.3759 34.4996 29.167C34.4996 26.958 36.2906 25.1672 38.4996 25.167ZM26.4996 18.5C29.445 18.5 31.8334 20.8876 31.8336 23.833C31.8336 26.7785 29.4452 29.167 26.4996 29.167C23.5543 29.1668 21.1666 26.7784 21.1666 23.833C21.1668 20.8877 23.5544 18.5002 26.4996 18.5Z" fill="#8280FF"/>
<path d="M38.4996 25.167V24.667H38.4996L38.4996 25.167ZM42.4996 29.167L42.9996 29.167V29.167H42.4996ZM38.4996 33.167L38.4996 33.667H38.4996V33.167ZM34.4996 29.167H33.9996V29.167L34.4996 29.167ZM26.4996 18.5V18H26.4996L26.4996 18.5ZM31.8336 23.833H32.3336V23.833L31.8336 23.833ZM26.4996 29.167L26.4996 29.667H26.4996V29.167ZM21.1666 23.833L20.6666 23.833V23.833H21.1666ZM38.4996 25.167V25.667C40.4326 25.667 41.9996 27.234 41.9996 29.167H42.4996H42.9996C42.9996 26.6817 40.9849 24.667 38.4996 24.667V25.167ZM42.4996 29.167L41.9996 29.167C41.9995 31.0999 40.4325 32.667 38.4996 32.667V33.167V33.667C40.9848 33.667 42.9994 31.6521 42.9996 29.167L42.4996 29.167ZM38.4996 33.167L38.4997 32.667C36.5669 32.6668 34.9998 31.0997 34.9996 29.167L34.4996 29.167L33.9996 29.167C33.9998 31.652 36.0146 33.6668 38.4996 33.667L38.4996 33.167ZM34.4996 29.167H34.9996C34.9996 27.2341 36.5668 25.6671 38.4997 25.667L38.4996 25.167L38.4996 24.667C36.0145 24.6672 33.9996 26.6818 33.9996 29.167H34.4996ZM26.4996 18.5V19C29.169 19 31.3335 21.1639 31.3336 23.833L31.8336 23.833L32.3336 23.833C32.3334 20.6114 29.7211 18 26.4996 18V18.5ZM31.8336 23.833H31.3336C31.3336 26.5024 29.169 28.667 26.4996 28.667V29.167V29.667C29.7213 29.667 32.3336 27.0547 32.3336 23.833H31.8336ZM26.4996 29.167L26.4997 28.667C23.8305 28.6668 21.6666 26.5024 21.6666 23.833H21.1666H20.6666C20.6666 27.0545 23.278 29.6668 26.4996 29.667L26.4996 29.167ZM21.1666 23.833L21.6666 23.833C21.6668 21.1639 23.8305 19.0002 26.4997 19L26.4996 18.5L26.4996 18C23.2782 18.0002 20.6668 20.6116 20.6666 23.833L21.1666 23.833Z" fill="#A2A9B0"/>
</g>
<path d="M26.4775 31.8333C32.8612 31.8333 38.1062 34.8908 38.4971 41.4329C38.5126 41.6936 38.4967 42.5003 37.4951 42.5003H15.4697C15.1353 42.4999 14.4728 41.7785 14.501 41.432C15.0179 35.0687 20.1825 31.8334 26.4775 31.8333ZM37.9688 34.5023C42.5104 34.5521 46.2188 36.8469 46.498 41.6995C46.5093 41.895 46.4978 42.5003 45.7744 42.5003H40.6338C40.6338 39.4996 39.6417 36.7304 37.9688 34.5023Z" fill="#8280FF"/>
<path d="M26.4775 31.8333V31.3333H26.4775L26.4775 31.8333ZM38.4971 41.4329L38.9962 41.4031L38.9962 41.4031L38.4971 41.4329ZM15.4697 42.5003L15.4691 43.0003H15.4697V42.5003ZM14.501 41.432L14.0026 41.3915L14.0026 41.3915L14.501 41.432ZM37.9688 34.5023L37.9742 34.0023L36.9597 33.9912L37.5689 34.8025L37.9688 34.5023ZM46.498 41.6995L46.9972 41.6708L46.9972 41.6708L46.498 41.6995ZM40.6338 42.5003H40.1338V43.0003H40.6338V42.5003ZM26.4775 31.8333V32.3333C29.5964 32.3333 32.3902 33.081 34.439 34.5831C36.4728 36.0742 37.8111 38.335 37.998 41.4628L38.4971 41.4329L38.9962 41.4031C38.7922 37.9888 37.3125 35.4498 35.0302 33.7766C32.7629 32.1144 29.7423 31.3333 26.4775 31.3333V31.8333ZM38.4971 41.4329L37.998 41.4627C38.0043 41.5687 37.9965 41.7183 37.9382 41.8257C37.9142 41.8699 37.8824 41.9057 37.8318 41.9341C37.7789 41.9638 37.6781 42.0003 37.4951 42.0003V42.5003V43.0003C37.8129 43.0003 38.0897 42.936 38.321 42.8063C38.5546 42.6753 38.7136 42.4932 38.8169 42.303C39.013 41.9419 39.0054 41.5579 38.9962 41.4031L38.4971 41.4329ZM37.4951 42.5003V42.0003H15.4697V42.5003V43.0003H37.4951V42.5003ZM15.4697 42.5003L15.4703 42.0003C15.5397 42.0004 15.5391 42.0254 15.4523 41.9671C15.3835 41.9208 15.3 41.8481 15.2189 41.7591C15.1379 41.6702 15.0728 41.5799 15.0325 41.5059C14.9829 41.4148 15.0043 41.411 14.9993 41.4724L14.501 41.432L14.0026 41.3915C13.9836 41.6262 14.0772 41.8425 14.1543 41.9842C14.2408 42.1429 14.357 42.298 14.4798 42.4327C14.6026 42.5675 14.7457 42.6969 14.8943 42.7969C15.0249 42.8847 15.2325 43 15.4691 43.0003L15.4697 42.5003ZM14.501 41.432L14.9993 41.4725C15.2464 38.4306 16.5967 36.1632 18.6222 34.6467C20.6587 33.1219 23.4107 32.3334 26.4775 32.3333L26.4775 31.8333L26.4775 31.3333C23.2493 31.3334 20.2715 32.1625 18.0228 33.8462C15.763 35.5381 14.2725 38.07 14.0026 41.3915L14.501 41.432ZM37.9688 34.5023L37.9633 35.0022C40.1573 35.0263 42.1043 35.5927 43.5253 36.6949C44.9335 37.7872 45.867 39.4366 45.9989 41.7283L46.498 41.6995L46.9972 41.6708C46.8498 39.1098 45.7894 37.1855 44.1382 35.9048C42.4999 34.634 40.3218 34.0281 37.9742 34.0023L37.9688 34.5023ZM46.498 41.6995L45.9989 41.7282C46.0006 41.7584 46.0011 41.7999 45.9955 41.8436C45.9898 41.8884 45.9794 41.921 45.9686 41.9416C45.9601 41.9578 45.9529 41.9646 45.9425 41.9707C45.9305 41.9777 45.8848 42.0003 45.7744 42.0003V42.5003V43.0003C46.0257 43.0003 46.2528 42.9473 46.446 42.8347C46.6408 42.7212 46.7714 42.5644 46.8548 42.4049C47.0115 42.1051 47.0042 41.7915 46.9972 41.6708L46.498 41.6995ZM45.7744 42.5003V42.0003H40.6338V42.5003V43.0003H45.7744V42.5003ZM40.6338 42.5003H41.1338C41.1338 39.3876 40.1042 36.5137 38.3686 34.2021L37.9688 34.5023L37.5689 34.8025C39.1791 36.9471 40.1338 39.6116 40.1338 42.5003H40.6338Z" fill="#A2A9B0"/>
</svg>
