<svg width="24" height="21" viewBox="0 0 24 21" fill="none" xmlns="http://www.w3.org/2000/svg">
<path d="M11.698 7.35274V11.3527M11.698 15.3527H11.708M9.98802 2.21274L1.51802 16.3527C1.34339 16.6552 1.25099 16.998 1.25001 17.3473C1.24903 17.6965 1.33951 18.0399 1.51245 18.3433C1.68538 18.6467 1.93474 18.8995 2.23573 19.0766C2.53671 19.2537 2.87882 19.3489 3.22802 19.3527H20.168C20.5172 19.3489 20.8593 19.2537 21.1603 19.0766C21.4613 18.8995 21.7107 18.6467 21.8836 18.3433C22.0565 18.0399 22.147 17.6965 22.146 17.3473C22.1451 16.998 22.0527 16.6552 21.878 16.3527L13.408 2.21274C13.2297 1.91885 12.9787 1.67586 12.6792 1.50723C12.3797 1.33859 12.0418 1.25 11.698 1.25C11.3543 1.25 11.0163 1.33859 10.7168 1.50723C10.4173 1.67586 10.1663 1.91885 9.98802 2.21274Z" stroke="#1E1E1E" stroke-width="2.5" stroke-linecap="round" stroke-linejoin="round"/>
</svg>
