<svg width="24" height="24" viewBox="0 0 24 24" fill="none" xmlns="http://www.w3.org/2000/svg">
<path d="M14 5V7C14 8.1 14.9 9 16 9H18" stroke="#121619" stroke-width="2" stroke-miterlimit="10" stroke-linecap="round" stroke-linejoin="round"/>
<path d="M13 22H8C4.5 22 3 20 3 17V7C3 4 4.5 2 8 2H16C19.5 2 21 4 21 7V14" stroke="#292D32" stroke-width="2" stroke-miterlimit="10" stroke-linecap="round" stroke-linejoin="round"/>
<path d="M18.2 22.4C19.9673 22.4 21.4 20.9673 21.4 19.2C21.4 17.4327 19.9673 16 18.2 16C16.4327 16 15 17.4327 15 19.2C15 20.9673 16.4327 22.4 18.2 22.4Z" stroke="#121619" stroke-width="2" stroke-linecap="round" stroke-linejoin="round"/>
<path d="M22 23L21 22" stroke="#121619" stroke-width="2" stroke-linecap="round" stroke-linejoin="round"/>
</svg>
