<svg width="25" height="24" viewBox="0 0 25 24" fill="none" xmlns="http://www.w3.org/2000/svg">
<path d="M11.02 4.46997L13 2" stroke="#292D32" stroke-width="2" stroke-linecap="round" stroke-linejoin="round"/>
<path d="M5.90988 7.79974C4.79988 9.27974 4.10986 11.1097 4.10986 13.1097C4.10986 18.0197 8.08988 21.9998 12.9999 21.9998C17.9099 21.9998 21.8899 18.0197 21.8899 13.1097C21.8899 8.19974 17.9099 4.21973 12.9999 4.21973C12.3199 4.21973 11.6599 4.30978 11.0199 4.45978" stroke="#292D32" stroke-width="2" stroke-linecap="round" stroke-linejoin="round"/>
<path d="M13.25 12V12.93C13.25 13.28 13.07 13.61 12.76 13.79L12 14.25" fill="#121619"/>
<path d="M13.25 12V12.93C13.25 13.28 13.07 13.61 12.76 13.79L12 14.25" stroke="#292D32" stroke-width="2" stroke-miterlimit="10" stroke-linecap="round" stroke-linejoin="round"/>
<path d="M13 17C15.2091 17 17 15.2091 17 13C17 10.7909 15.2091 9 13 9C10.7909 9 9 10.7909 9 13C9 15.2091 10.7909 17 13 17Z" stroke="#292D32" stroke-width="2" stroke-miterlimit="10" stroke-linecap="round" stroke-linejoin="round"/>
</svg>
